<?xml version="1.0" standalone="no"?>
<!DOCTYPE svg PUBLIC "-//W3C//DTD SVG 20010904//EN"
 "http://www.w3.org/TR/2001/REC-SVG-20010904/DTD/svg10.dtd">
<svg version="1.0" xmlns="http://www.w3.org/2000/svg"
 width="992.000000pt" height="992.000000pt" viewBox="0 0 992.000000 992.000000"
 preserveAspectRatio="xMidYMid meet">
<metadata>
Created by potrace 1.11, written by Peter Selinger 2001-2013
</metadata>
<g transform="translate(0.000000,992.000000) scale(0.100000,-0.100000)"
fill="#000000" stroke="none">
<path d="M4718 9914 c-2 -1 -50 -5 -108 -8 -58 -4 -121 -9 -140 -11 -19 -3
-60 -7 -90 -10 -71 -8 -106 -13 -210 -30 -47 -8 -103 -17 -125 -20 -22 -4 -48
-8 -57 -11 -10 -3 -30 -8 -45 -10 -16 -3 -48 -10 -73 -15 -25 -6 -53 -12 -62
-14 -9 -2 -61 -15 -115 -30 -54 -15 -106 -28 -115 -30 -46 -10 -358 -119 -473
-165 -155 -62 -460 -209 -565 -271 -41 -24 -86 -50 -100 -57 -14 -7 -34 -18
-45 -25 -263 -164 -485 -327 -715 -526 -117 -101 -384 -372 -490 -497 -99
-117 -209 -256 -266 -339 -171 -248 -317 -490 -406 -675 -15 -30 -41 -84 -58
-120 -148 -305 -325 -855 -374 -1160 -3 -19 -8 -46 -11 -60 -6 -28 -31 -197
-40 -275 -3 -27 -8 -63 -10 -80 -27 -202 -27 -869 -1 -1025 3 -14 7 -56 11
-95 4 -38 11 -92 16 -120 6 -27 12 -69 15 -91 5 -35 61 -312 79 -392 31 -131
164 -543 210 -647 7 -16 37 -84 66 -150 289 -665 749 -1283 1320 -1771 445
-381 966 -685 1526 -888 127 -47 410 -134 485 -150 13 -3 41 -10 63 -15 80
-20 339 -69 399 -76 22 -3 50 -7 61 -9 20 -4 81 -12 165 -21 231 -27 831 -27
1035 0 17 2 53 7 80 10 54 6 237 33 270 39 37 7 105 18 110 17 2 0 19 5 37 10
18 5 46 12 62 14 151 28 530 143 741 227 244 96 548 246 750 371 265 164 555
379 746 553 73 67 339 333 384 384 516 588 856 1205 1075 1949 12 41 23 81 25
90 2 9 19 84 39 166 19 83 37 170 41 195 3 25 8 52 10 60 2 8 6 33 10 55 3 22
10 67 15 100 5 33 12 85 15 115 3 30 7 71 10 90 25 211 25 804 0 975 -2 17 -6
53 -9 80 -11 99 -17 138 -41 285 -3 19 -15 80 -26 135 -11 55 -22 111 -25 125
-9 43 -75 294 -80 302 -3 4 -7 16 -9 25 -12 62 -139 409 -196 538 -38 86 -176
367 -215 435 -561 997 -1436 1769 -2479 2188 -224 89 -552 196 -675 218 -14 3
-41 9 -60 14 -39 10 -265 55 -320 64 -82 13 -242 33 -322 41 -32 3 -84 8 -115
11 -55 6 -600 13 -605 8z"/>
</g>
</svg>
