<svg id="Layer_1" data-name="Layer 1" xmlns="http://www.w3.org/2000/svg" xmlns:xlink="http://www.w3.org/1999/xlink" viewBox="0 0 252.38 252.38"><defs><style>.cls-1,.cls-2,.cls-3,.cls-4,.cls-5{fill:#508fff;}.cls-1{opacity:0.05;}.cls-2{opacity:0.08;}.cls-3{opacity:0.1;}.cls-4{opacity:0.14;}.cls-5{opacity:0.16;}.cls-6{fill:url(#linear-gradient);}</style><linearGradient id="linear-gradient" x1="127.61" y1="376.07" x2="127.61" y2="329.95" gradientTransform="translate(-1.42 -248.82)" gradientUnits="userSpaceOnUse"><stop offset="0" stop-color="#6192ea"/><stop offset="1" stop-color="#6695eb"/></linearGradient></defs><title>big-pin</title><circle class="cls-1" cx="126.19" cy="126.19" r="126.19"/><circle class="cls-2" cx="126.19" cy="126.19" r="99.91"/><circle class="cls-3" cx="126.19" cy="126.19" r="72.2"/><circle class="cls-4" cx="126.19" cy="126.19" r="44.16"/><circle class="cls-5" cx="126.19" cy="126.19" r="21.4"/><path class="cls-6" d="M125.53,81.14A18.41,18.41,0,0,0,108.12,103h0s0,.2.12.58a18.44,18.44,0,0,0,1.24,3.65c1.84,4.37,6.1,11.68,15.68,19.63a1.6,1.6,0,0,0,2,0c9.57-7.94,13.84-15.25,15.69-19.64a17.66,17.66,0,0,0,1.24-3.65c.08-.37.12-.58.12-.58h0a18.41,18.41,0,0,0-18.73-21.88Zm.65,27.54a8.94,8.94,0,1,1,8.94-8.94h0a8.94,8.94,0,0,1-8.93,8.94h0Z"/></svg>