<svg id="Capa_1" data-name="Capa 1" xmlns="http://www.w3.org/2000/svg" xmlns:xlink="http://www.w3.org/1999/xlink" viewBox="0 0 200.99 251.9"><defs><style>.cls-1{fill:url(#linear-gradient);}</style><linearGradient id="linear-gradient" x1="101.92" y1="-0.72" x2="101.92" y2="251.18" gradientTransform="matrix(1, 0, 0, -1, -1.43, 252.06)" gradientUnits="userSpaceOnUse"><stop offset="0" stop-color="#6192ea"/><stop offset="1" stop-color="#6695eb"/></linearGradient></defs><title>blue-pin</title><path class="cls-1" d="M96.89.94C46.89,2.7,5.27,41.74.47,91.58a101.09,101.09,0,0,0,1.34,28.87h0s.15,1.08.67,3.15a100.72,100.72,0,0,0,6.77,19.94c10.07,23.86,33.32,63.78,85.63,107.22a8.73,8.73,0,0,0,11.16,0c52.27-43.38,75.56-83.3,85.68-107.27a96.45,96.45,0,0,0,6.77-19.94c.46-2,.67-3.15.67-3.15h0A100.54,100.54,0,0,0,96.89.94Zm3.57,150.39a48.81,48.81,0,1,1,48.8-48.82h0a48.8,48.8,0,0,1-48.78,48.82Z" transform="translate(0.01 -0.88)"/></svg>