<svg id="Capa_1" data-name="Capa 1" xmlns="http://www.w3.org/2000/svg" xmlns:xlink="http://www.w3.org/1999/xlink" viewBox="0 0 510 510"><defs><style>.cls-1{fill:url(#linear-gradient);}.cls-2{fill:url(#linear-gradient-2);}</style><linearGradient id="linear-gradient" x1="255" y1="510" x2="255" gradientUnits="userSpaceOnUse"><stop offset="0" stop-color="#4f8ee4"/><stop offset="1" stop-color="#4184e2"/></linearGradient><linearGradient id="linear-gradient-2" x1="255.52" y1="365.73" x2="255.52" y2="113.84" gradientUnits="userSpaceOnUse"><stop offset="0" stop-color="#e8eefd"/><stop offset="1" stop-color="#fdfdff"/></linearGradient></defs><title>logo</title><circle class="cls-1" cx="255" cy="255" r="255"/><path class="cls-2" d="M251.93,113.91c-50,1.76-91.62,40.8-96.42,90.64a101.09,101.09,0,0,0,1.34,28.87h0s.15,1.08.67,3.15a100.72,100.72,0,0,0,6.77,19.94c10.07,23.86,33.36,63.78,85.63,107.22a8.73,8.73,0,0,0,11.16,0c52.27-43.38,75.56-83.3,85.68-107.27a96.45,96.45,0,0,0,6.77-19.94c.46-2,.67-3.15.67-3.15h0A100.54,100.54,0,0,0,251.93,113.91ZM255.5,264.3A48.81,48.81,0,1,1,304.3,215.5,48.8,48.8,0,0,1,255.5,264.3Z"/></svg>